Coordinates
version=1
nRows=16
nColumns=36
inDegrees=yes

Units are S.I. units (second, meters, Newtons, ...)
If the header above contains a line with 'inDegrees', this indicates whether rotational values are in degrees (yes) or radians (no).

endheader
time	pelvis_tilt	pelvis_list	pelvis_rotation	pelvis_tx	pelvis_ty	pelvis_tz	hip_flexion_r	hip_adduction_r	hip_rotation_r	knee_angle_r	knee_angle_r_beta	ankle_angle_r	subtalar_angle_r	mtp_angle_r	hip_flexion_l	hip_adduction_l	hip_rotation_l	knee_angle_l	knee_angle_l_beta	ankle_angle_l	subtalar_angle_l	mtp_angle_l	lumbar_extension	lumbar_bending	lumbar_rotation	arm_flex_r	arm_add_r	arm_rot_r	elbow_flex_r	pro_sup_r	arm_flex_l	arm_add_l	arm_rot_l	elbow_flex_l	pro_sup_l
      1.38000000	     -3.47766624	      1.99281855	     -4.81318119	     -0.46050616	      1.07249741	     -0.58770437	     29.09113768	     -6.78131951	     -2.24655744	     12.24059051	      0.21363861	    -37.99507510	     -3.15936646	     -6.79507060	     29.04772925	     -5.25313797	     -9.67447382	     10.39439750	      0.18141646	    -37.50417997	     -2.36389462	     -6.79507060	    -16.60352048	      0.84314970	     -0.49530969	     75.72123023	    -60.83371044	     61.34736120	     91.49035854	    102.61726652	     52.30361470	    -59.27019966	     33.70881042	     76.51789647	    111.14748942
      1.39000000	     -2.97011161	      1.87632498	     -4.80344116	     -0.44731036	      1.04936954	     -0.58803282	     29.27368195	     -6.80677351	     -1.85277238	     13.39094824	      0.23371614	    -38.50076991	     -3.28752002	     -6.82684658	     29.07803159	     -5.41018285	     -9.12622633	     11.78751264	      0.20573091	    -37.60579708	     -2.59591667	     -6.82684658	    -16.82093240	      1.02900763	     -0.48534829	     75.84329757	    -64.19634771	     61.69431928	     94.40455279	    102.20613471	     50.93704851	    -63.23834539	     33.80109214	     79.18274662	    110.68254721
      1.40000000	     -2.41523392	      1.64990116	     -4.83684332	     -0.43400902	      1.02521375	     -0.58828510	     29.51689964	     -6.64723552	     -1.24014708	     14.69567617	      0.25648793	    -40.25101195	     -3.41174696	     -7.30646173	     29.23004492	     -5.66786937	     -8.34852736	     13.66753281	      0.23854345	    -38.71817448	     -3.17487202	     -7.30646173	    -17.32509829	      1.64947041	     -4.28622939	     80.57754875	    -61.86065317	     66.85368448	     94.17683644	     99.86597822	     33.03915230	    -71.58591298	     16.77347218	     85.71446471	    110.51043494
      1.41000000	     -1.77969616	      1.42233331	     -4.81122463	     -0.42076297	      1.00006399	     -0.58845015	     29.85390993	     -6.43367166	     -0.54979233	     16.38527094	      0.28597693	    -41.97796138	     -3.75364290	     -7.31410306	     29.48434155	     -5.87837005	     -7.33335962	     15.92955445	      0.27802317	    -40.01939624	     -3.75220986	     -7.31410306	    -17.81586219	      1.76046616	     -3.29951077	     80.11252170	    -67.49420969	     66.63006453	     98.17294796	     99.92292538	     30.58708208	    -75.13045830	     16.25150274	     87.71868606	    110.23559852
      1.42000000	     -1.40445541	      1.17755971	     -4.85124570	     -0.40821666	      0.97403070	     -0.58860268	     30.80859457	     -6.04969997	      0.01581511	     19.81314997	      0.34580470	    -39.63864502	     -6.12750610	     -7.46446036	     30.33598136	     -6.10657169	     -6.21863893	     19.44803271	      0.33943220	    -37.50521842	     -5.34905716	     -7.46446036	    -18.86870363	      2.22069550	    -12.28159270	     84.85224165	    -57.85918577	     70.87304950	     93.69069254	     98.94357313	    -50.48296302	    -72.72993078	    -64.37238681	     97.51260122	    108.98881785
      1.43000000	     -1.21662701	      1.04401322	     -4.92876263	     -0.39697557	      0.94694187	     -0.58865579	     32.85430946	     -5.68959057	      0.44343000	     27.06114420	      0.47230607	    -28.50196439	    -10.11638392	     -7.48014429	     32.08039842	     -6.25627911	     -5.50516347	     25.68774035	      0.44833565	    -27.03361954	     -8.32250456	     -7.48014429	    -19.57071965	      2.02329428	    -15.07283877	     84.57106688	    -58.16846884	     70.25208038	     94.26410768	     99.83160392	    -70.31611922	    -65.26732653	    -83.01443882	    101.61428508	    107.92855659
      1.44000000	     -0.96187791	      1.02731535	     -5.05156218	     -0.38618703	      0.91885363	     -0.58863344	     35.60261280	     -5.39066150	      1.13738921	     36.86977013	      0.64349888	    -11.72874276	    -11.91611442	     -7.48593895	     34.43414057	     -6.31328842	     -5.12702922	     34.16722475	      0.59633057	    -11.47733191	    -10.76031027	     -7.48593895	    -20.34571445	      1.53069561	    -16.58980598	     82.71400148	    -60.62706497	     68.34405118	     96.13814191	     96.73260402	    -79.94060370	    -58.37366698	    -91.14866439	    104.76264043	    104.21147542
      1.45000000	     -0.87042239	      0.90647493	     -5.13325693	     -0.37614895	      0.89068216	     -0.58870742	     38.53308270	     -4.80812617	      2.17713950	     45.86970636	      0.80057740	      1.84546496	    -12.72183237	     -7.48891566	     37.31820018	     -6.43448327	     -4.59533850	     42.67408550	      0.74480330	      1.45831932	    -12.25882721	     -7.48891566	    -21.01304289	      1.15992528	    -17.50266725	     79.71877743	    -63.95085255	     65.75591583	     97.90550224	     95.44828097	    -85.24981785	    -51.92213861	    -94.96595180	    106.86677216	    102.16944441
      1.46000000	     -1.76127181	      0.83459206	     -5.17715089	     -0.36800245	      0.86315873	     -0.58871231	     42.18766811	     -4.17857632	      3.16584149	     52.76380378	      0.92090210	     10.11181187	    -13.94865710	     -7.49114295	     41.42041606	     -6.65933344	     -3.89233350	     50.00939073	      0.87282853	      9.03349086	    -13.59664439	     -7.49114295	    -20.96921810	      0.78909945	    -17.26824462	     71.40150949	    -68.73457960	     57.76798822	    100.18386997	     96.41705161	    -87.81802237	    -47.04782822	    -96.19923225	    108.05299388	    102.66264586
      1.47000000	     -4.10114682	      0.79746713	     -5.26755968	     -0.36200653	      0.83605846	     -0.58871207	     47.34563741	     -3.53165328	      4.01959851	     58.42966471	      1.01979003	     14.62875642	    -15.16356261	     -7.49371982	     47.56831016	     -7.10772547	     -2.86120635	     56.97229467	      0.99435412	     12.71479669	    -14.50435492	     -7.49371982	    -19.72408984	      0.65788663	    -15.82734451	     53.29671366	    -74.16057502	     40.32517801	    103.23280346	     97.13846803	    -87.95891149	    -43.88472243	    -95.01528469	    108.75784719	    102.91396503
      1.48000000	     -6.70521266	      1.00526740	     -5.61592200	     -0.35645626	      0.81073325	     -0.58837710	     53.20315249	     -2.82864531	      5.17285691	     64.13768268	      1.11941374	     16.70948712	    -15.97358906	     -7.49731930	     54.34023049	     -7.62670033	     -2.02771004	     64.04486728	      1.11779380	     14.20996317	    -14.69107027	     -7.49731930	    -18.37854496	      0.39848316	    -13.26269385	     15.96849329	    -76.84284280	      3.90828610	    106.35670873	     99.68540803	    -86.73876242	    -42.27235937	    -92.18907664	    108.87404559	    103.58716983
      1.49000000	     -8.00068611	      1.08634773	     -6.11860975	     -0.35000537	      0.78935048	     -0.58795741	     57.71792270	     -1.89960954	      6.26544943	     69.93824139	      1.22065259	     17.75807081	    -16.76558889	     -7.49735830	     59.45424115	     -8.26221277	     -1.45206372	     70.72873540	      1.23444931	     14.82562638	    -15.20524215	     -7.49735830	    -18.03077535	      0.02382914	    -15.21689696	     13.11056302	    -73.83484491	      3.28050112	    104.36020556	     99.46077182	    -85.87002635	    -34.43053658	    -89.07537660	    108.40371151	    103.61791763
      1.50000000	     -8.12441425	      1.37152691	     -6.38764447	     -0.34257334	      0.77172731	     -0.58719836	     60.65477403	     -1.50464215	      7.10245855	     75.44768745	      1.31681056	     19.38735733	    -16.35983876	     -7.49862213	     62.38182207	     -8.60483765	     -1.39489774	     76.15455864	      1.32914779	     16.15491144	    -14.57257507	     -7.49862213	    -20.02065846	      0.05349200	     -7.62253176	    -36.81193662	    -65.82730644	    -46.69810542	    110.59730336	    101.89322330	    -81.56108722	    -41.10243457	    -82.90014382	    107.64635130	    104.18906248
      1.51000000	     -7.76381856	      1.43961067	     -6.49347401	     -0.33594684	      0.75631260	     -0.58694110	     62.40122675	     -1.28192617	      7.49981597	     79.84638277	      1.39358228	     20.58986169	    -16.86239188	     -7.49864156	     64.00382866	     -8.88015497	     -1.43009855	     80.24071313	      1.40046464	     17.37629952	    -15.26166265	     -7.49864156	    -21.92205747	     -0.24220412	     -7.63056098	    -37.61967384	    -60.52285615	    -46.10539601	    109.44067115	    101.80618473	    -79.71587211	    -37.49288245	    -78.35317074	    107.05237754	    104.30629179
      1.52000000	     -7.69222928	      1.47761103	     -6.54154409	     -0.33012196	      0.74116868	     -0.58733445	     64.04231030	     -1.30549201	      7.60910190	     83.44184649	      1.45633496	     22.75428375	    -16.03954618	     -7.49885556	     65.44925174	     -9.07055301	     -1.46859170	     83.54459513	      1.45812826	     19.56749921	    -15.26564595	     -7.49885556	    -23.56792290	      0.09970330	     -5.39808106	    -43.45743486	    -53.60644046	    -50.68026893	    109.77892372	    103.05488264	    -75.89873689	    -37.75166642	    -71.60323922	    105.43261560	    104.57062366
      1.53000000	     -7.88354314	      1.69097058	     -6.57852941	     -0.32533837	      0.72663811	     -0.58821567	     65.73566178	     -1.46670085	      7.82007373	     86.39250085	      1.50783359	     23.84209428	    -16.49291282	     -7.49887173	     66.84736436	     -8.95914583	     -1.60903586	     86.19740013	      1.50442844	     21.14209151	    -16.22078169	     -7.49887173	    -24.87716896	     -0.02898932	     -5.24585426	    -42.81647857	    -49.03910944	    -48.57383692	    108.33570208	    102.93406070	    -73.16112758	    -35.16168502	    -66.13725396	    104.62144048	    104.64427434
